<?xml version="1.0" encoding="utf-8"?>
<!-- Generator: Adobe Illustrator 16.0.4, SVG Export Plug-In . SVG Version: 6.00 Build 0)  -->
<!DOCTYPE svg PUBLIC "-//W3C//DTD SVG 1.1//EN" "http://www.w3.org/Graphics/SVG/1.1/DTD/svg11.dtd">
<svg version="1.1" id="Layer_1" xmlns="http://www.w3.org/2000/svg" xmlns:xlink="http://www.w3.org/1999/xlink" x="0px" y="0px"
	 width="98.393px" height="69.283px" viewBox="0 0 98.393 69.283" enable-background="new 0 0 98.393 69.283" xml:space="preserve">
<g>
	<g>
		<polyline fill="#C4AB97" points="19.33,66.1 78.954,51.943 76.658,56.775 15.373,69.283 		"/>
		<polyline fill="#C4AB97" points="13.076,64.538 72.7,50.379 70.404,55.211 7.949,65.978 		"/>
		<polygon fill="#F4DDC3" points="78.849,16.552 82.1,20.802 86.798,18.242 88.039,23.448 93.372,23.018 92.389,28.279 
			97.436,30.056 94.398,34.461 98.285,38.139 93.719,40.926 95.773,45.867 90.468,46.558 90.336,51.907 85.208,50.379 
			82.912,55.211 78.849,51.731 74.785,55.211 72.489,50.379 67.361,51.907 67.23,46.558 61.924,45.867 63.979,40.926 59.412,38.139 
			63.299,34.461 60.262,30.056 65.309,28.279 64.325,23.018 69.658,23.448 70.899,18.242 75.598,20.802 		"/>
		<polyline fill="#D6BCA3" points="32.977,42.349 92.389,28.279 93.372,23.018 33.961,37.089 		"/>
		<polyline fill="#D6BCA3" points="11.088,37.659 70.5,23.587 71.484,18.328 12.072,32.4 		"/>
		<polyline fill="#D6BCA3" points="34.359,54.998 93.719,40.926 98.393,38.139 38.953,52.209 		"/>
		<polyline fill="#DDCAB1" points="31.056,60.628 95.773,45.867 95.773,45.867 36.361,59.939 		"/>
		<polyline fill="#CCB3A6" points="25.584,64.538 85.208,50.379 82.912,55.211 23.5,69.283 		"/>
		<polyline fill="#D6BCA3" points="34.986,48.533 94.398,34.461 97.436,30.056 38.023,44.127 		"/>
		<polyline fill="#DDCAB1" points="38.023,44.127 97.436,30.056 92.389,28.279 32.977,42.349 		"/>
		<polyline fill="#DDCAB1" points="38.873,52.209 98.285,38.139 94.398,34.461 34.986,48.533 		"/>
		<polyline fill="#DDCAB1" points="33.961,37.089 93.372,23.018 88.039,23.448 28.627,37.519 		"/>
		<polyline fill="#DDCAB1" points="28.627,37.519 88.039,23.448 86.798,18.242 27.386,32.313 		"/>
		<polyline fill="#D6BCA3" points="22.688,34.874 81.525,19.441 78.849,16.552 19.438,30.624 		"/>
		<path fill="#D6BCA3" d="M38.023,44.127"/>
		<polyline fill="#D6BCA3" points="31.056,60.628 90.468,46.558 90.336,51.907 30.924,65.978 		"/>
		<polyline fill="#DDCAB1" points="36.361,59.939 95.773,45.867 93.719,40.926 34.307,54.998 		"/>
		<polygon fill="#F4DDC3" points="19.438,30.624 22.688,34.874 27.386,32.313 28.627,37.519 33.961,37.089 32.977,42.349 
			38.023,44.127 34.986,48.533 38.873,52.209 34.307,54.998 36.361,59.939 31.056,60.628 30.924,65.978 25.796,64.45 23.5,69.283 
			19.438,65.801 15.373,69.283 13.078,64.45 7.949,65.978 7.818,60.628 2.512,59.939 4.567,54.998 0,52.209 3.888,48.533 
			0.85,44.127 5.896,42.349 4.913,37.089 10.247,37.519 11.488,32.313 16.187,34.874 		"/>
		<circle fill="#562A0D" cx="19.718" cy="50.167" r="7.817"/>
	</g>
	<g>
		<g>
			<path fill="#6D4C33" d="M35.957,18.341c7.569-7.114,32.342-11.811,42.473,6.694c5.553,10.144-0.803,13.055-5.971,14.77
				c-5.334,1.771-9.7,2.191-17.75,3.224C39.216,45.016,26.139,27.568,35.957,18.341z"/>
			<path fill="#A07050" d="M38.107,19.239C61.87,8.999,59.088,0.697,68.65,9.615c24.533,22.881-3.965,32.679-17.881,29.382
				C38.665,36.129,33.953,21.03,38.107,19.239z"/>
		</g>
		<g>
			<path fill="#6D4C33" d="M44.93,16.501c16.941-0.555,24.553-19.519,22.902,3.364C66.721,35.281,25.688,17.131,44.93,16.501z"/>
			<path fill="#A07050" d="M48.071,13.14c13.674-2.269,18.372-26.213,18.718-3.275C67.134,32.804,29.079,16.293,48.071,13.14z"/>
		</g>
	</g>
</g>
</svg>
