<?xml version="1.0" encoding="utf-8"?>
<!-- Generator: Adobe Illustrator 16.0.4, SVG Export Plug-In . SVG Version: 6.00 Build 0)  -->
<!DOCTYPE svg PUBLIC "-//W3C//DTD SVG 1.1//EN" "http://www.w3.org/Graphics/SVG/1.1/DTD/svg11.dtd">
<svg version="1.1" id="Layer_1" xmlns="http://www.w3.org/2000/svg" xmlns:xlink="http://www.w3.org/1999/xlink" x="0px" y="0px"
	 width="98.392px" height="72.987px" viewBox="0 0 98.392 72.987" enable-background="new 0 0 98.392 72.987" xml:space="preserve">
<g>
	<polyline fill="#C4AB97" points="19.329,69.805 78.954,55.646 76.658,60.479 15.373,72.987 	"/>
	<polyline fill="#C4AB97" points="13.076,68.242 72.7,54.084 70.404,58.916 7.949,69.682 	"/>
	<polygon fill="#F4DDC3" points="78.849,20.257 82.099,24.508 86.798,21.946 88.039,27.152 93.372,26.723 92.389,31.983 
		97.435,33.761 94.398,38.166 98.285,41.843 93.718,44.631 95.773,49.571 90.467,50.262 90.336,55.611 85.208,54.084 82.912,58.916 
		78.849,55.436 74.785,58.916 72.489,54.084 67.361,55.611 67.229,50.262 61.924,49.571 63.979,44.631 59.412,41.843 63.299,38.166 
		60.262,33.761 65.309,31.983 64.325,26.723 69.659,27.152 70.899,21.946 75.598,24.508 	"/>
	<polyline fill="#D6BCA3" points="32.977,46.054 92.389,31.983 93.372,26.723 33.96,40.794 	"/>
	<polyline fill="#D6BCA3" points="11.088,41.363 70.5,27.292 71.483,22.032 12.071,36.104 	"/>
	<polyline fill="#D6BCA3" points="34.359,58.702 93.718,44.631 98.392,41.843 38.954,55.914 	"/>
	<polyline fill="#DDCAB1" points="31.055,64.333 95.773,49.571 95.773,49.571 36.361,63.643 	"/>
	<polyline fill="#CCB3A6" points="25.583,68.242 85.208,54.084 82.912,58.916 23.5,72.987 	"/>
	<polyline fill="#D6BCA3" points="34.986,52.237 94.398,38.166 97.435,33.761 38.023,47.832 	"/>
	<polyline fill="#DDCAB1" points="38.023,47.832 97.435,33.761 92.389,31.983 32.977,46.054 	"/>
	<polyline fill="#DDCAB1" points="38.873,55.914 98.285,41.843 94.398,38.166 34.986,52.237 	"/>
	<polyline fill="#DDCAB1" points="33.96,40.794 93.372,26.723 88.039,27.152 28.626,41.223 	"/>
	<polyline fill="#DDCAB1" points="28.626,41.223 88.039,27.152 86.798,21.946 27.386,36.018 	"/>
	<polyline fill="#D6BCA3" points="22.687,38.578 81.524,23.146 78.849,20.257 19.437,34.328 	"/>
	<path fill="#D6BCA3" d="M38.023,47.832"/>
	<polyline fill="#D6BCA3" points="31.055,64.333 90.467,50.262 90.336,55.611 30.924,69.682 	"/>
	<polyline fill="#DDCAB1" points="36.361,63.643 95.773,49.571 93.718,44.631 34.306,58.702 	"/>
	<polygon fill="#F4DDC3" points="19.437,34.328 22.687,38.578 27.386,36.018 28.626,41.223 33.96,40.794 32.977,46.054 
		38.023,47.832 34.986,52.237 38.873,55.914 34.306,58.702 36.361,63.643 31.055,64.333 30.924,69.682 25.796,68.154 23.5,72.987 
		19.437,69.506 15.373,72.987 13.078,68.154 7.949,69.682 7.818,64.333 2.512,63.643 4.567,58.702 0,55.914 3.887,52.237 
		0.85,47.832 5.897,46.054 4.913,40.794 10.247,41.223 11.488,36.018 16.186,38.578 	"/>
	<circle fill="#FFF4D7" cx="19.718" cy="53.871" r="7.817"/>
</g>
<g>
	<g>
		<path fill="#EFF7F9" d="M34.83,19.487c7.279-7.411,31.844-13.095,42.706,4.989c5.955,9.915-0.279,13.078-5.374,14.998
			c-5.259,1.981-9.605,2.577-17.607,3.93C39.153,46.011,25.389,29.099,34.83,19.487z"/>
		<path fill="#FFFFFF" d="M37.015,20.298C60.349,9.116,57.236,0.933,67.147,9.461c25.43,21.881-2.653,32.811-16.69,30.073
			C38.248,37.154,32.935,22.254,37.015,20.298z"/>
	</g>
	<g>
		<path fill="#EFF7F9" d="M43.721,17.29c16.905-1.231,23.752-20.484,23.02,2.445C66.247,35.183,24.52,18.688,43.721,17.29z"/>
		<path fill="#FFFFFF" d="M46.727,13.807c13.572-2.814,17.309-26.928,18.571-4.021S27.876,17.717,46.727,13.807z"/>
	</g>
</g>
</svg>
