<?xml version="1.0" encoding="utf-8"?>
<!-- Generator: Adobe Illustrator 16.0.4, SVG Export Plug-In . SVG Version: 6.00 Build 0)  -->
<!DOCTYPE svg PUBLIC "-//W3C//DTD SVG 1.1//EN" "http://www.w3.org/Graphics/SVG/1.1/DTD/svg11.dtd">
<svg version="1.1" id="Layer_1" xmlns="http://www.w3.org/2000/svg" xmlns:xlink="http://www.w3.org/1999/xlink" x="0px" y="0px"
	 width="98.391px" height="52.73px" viewBox="0 0 98.391 52.73" enable-background="new 0 0 98.391 52.73" xml:space="preserve">
<g>
	<polyline fill="#C4AB97" points="19.329,49.548 78.955,35.391 76.658,40.223 15.373,52.73 	"/>
	<polyline fill="#C4AB97" points="13.076,47.985 72.7,33.827 70.404,38.659 7.949,49.426 	"/>
	<polygon fill="#F4DDC3" points="78.849,0 82.099,4.25 86.797,1.689 88.039,6.896 93.373,6.466 92.388,11.727 97.435,13.504 
		94.398,17.909 98.285,21.587 93.718,24.374 95.773,29.314 90.466,30.006 90.335,35.354 85.208,33.827 82.912,38.659 78.849,35.179 
		74.785,38.659 72.489,33.827 67.361,35.354 67.23,30.006 61.923,29.314 63.979,24.374 59.412,21.587 63.298,17.909 60.261,13.504 
		65.308,11.727 64.326,6.466 69.658,6.896 70.899,1.689 75.597,4.25 	"/>
	<polyline fill="#D6BCA3" points="32.976,25.797 92.388,11.727 93.373,6.466 33.96,20.537 	"/>
	<polyline fill="#D6BCA3" points="11.088,21.106 70.5,7.035 71.483,1.775 12.071,15.848 	"/>
	<polyline fill="#D6BCA3" points="34.359,38.445 93.718,24.374 98.391,21.587 38.953,35.657 	"/>
	<polyline fill="#DDCAB1" points="31.055,44.076 95.773,29.314 95.773,29.314 36.361,43.387 	"/>
	<polyline fill="#CCB3A6" points="25.583,47.985 85.208,33.827 82.912,38.659 23.5,52.73 	"/>
	<polyline fill="#D6BCA3" points="34.985,31.98 94.398,17.909 97.435,13.504 38.023,27.575 	"/>
	<polyline fill="#DDCAB1" points="38.023,27.575 97.435,13.504 92.388,11.727 32.976,25.797 	"/>
	<polyline fill="#DDCAB1" points="38.873,35.657 98.285,21.587 94.398,17.909 34.985,31.98 	"/>
	<polyline fill="#DDCAB1" points="33.96,20.537 93.373,6.466 88.039,6.896 28.626,20.967 	"/>
	<polyline fill="#DDCAB1" points="28.626,20.967 88.039,6.896 86.797,1.689 27.386,15.761 	"/>
	<polyline fill="#D6BCA3" points="22.687,18.321 81.524,2.889 78.849,0 19.437,14.071 	"/>
	<path fill="#D6BCA3" d="M38.023,27.575"/>
	<polyline fill="#D6BCA3" points="31.055,44.076 90.466,30.006 90.335,35.354 30.924,49.426 	"/>
	<polyline fill="#DDCAB1" points="36.361,43.387 95.773,29.314 93.718,24.374 34.306,38.445 	"/>
	<polygon fill="#F4DDC3" points="19.437,14.071 22.687,18.321 27.386,15.761 28.626,20.967 33.96,20.537 32.976,25.797 
		38.023,27.575 34.985,31.98 38.873,35.657 34.306,38.445 36.361,43.387 31.055,44.076 30.924,49.426 25.795,47.897 23.5,52.73 
		19.437,49.249 15.373,52.73 13.078,47.897 7.949,49.426 7.817,44.076 2.512,43.387 4.567,38.445 0,35.657 3.887,31.98 0.85,27.575 
		5.896,25.797 4.913,20.537 10.246,20.967 11.488,15.761 16.186,18.321 	"/>
	<circle fill="#C4AB97" cx="19.717" cy="33.614" r="7.817"/>
</g>
</svg>
