<?xml version="1.0" encoding="utf-8"?>
<!-- Generator: Adobe Illustrator 16.0.4, SVG Export Plug-In . SVG Version: 6.00 Build 0)  -->
<!DOCTYPE svg PUBLIC "-//W3C//DTD SVG 1.1//EN" "http://www.w3.org/Graphics/SVG/1.1/DTD/svg11.dtd">
<svg version="1.1" id="Layer_1" xmlns="http://www.w3.org/2000/svg" xmlns:xlink="http://www.w3.org/1999/xlink" x="0px" y="0px"
	 width="98.391px" height="70.245px" viewBox="0 0 98.391 70.245" enable-background="new 0 0 98.391 70.245" xml:space="preserve">
<g>
	<polyline fill="#C4AB97" points="19.329,67.062 78.954,52.904 76.658,57.737 15.373,70.245 	"/>
	<polyline fill="#C4AB97" points="13.075,65.5 72.7,51.342 70.404,56.174 7.949,66.939 	"/>
	<polygon fill="#F4DDC3" points="78.848,17.515 82.099,21.766 86.797,19.204 88.038,24.41 93.372,23.98 92.388,29.24 97.435,31.019 
		94.397,35.424 98.285,39.101 93.717,41.889 95.773,46.829 90.467,47.52 90.336,52.869 85.208,51.342 82.912,56.174 78.848,52.693 
		74.786,56.174 72.489,51.342 67.361,52.869 67.229,47.52 61.923,46.829 63.979,41.889 59.412,39.101 63.299,35.424 60.262,31.019 
		65.308,29.24 64.325,23.98 69.659,24.41 70.899,19.204 75.598,21.766 	"/>
	<polyline fill="#D6BCA3" points="32.977,43.312 92.388,29.24 93.372,23.98 33.96,38.052 	"/>
	<polyline fill="#D6BCA3" points="11.088,38.621 70.5,24.55 71.483,19.29 12.071,33.361 	"/>
	<polyline fill="#D6BCA3" points="34.359,55.96 93.717,41.889 98.391,39.101 38.953,53.172 	"/>
	<polyline fill="#DDCAB1" points="31.055,61.591 95.773,46.829 95.773,46.829 36.361,60.9 	"/>
	<polyline fill="#CCB3A6" points="25.583,65.5 85.208,51.342 82.912,56.174 23.5,70.245 	"/>
	<polyline fill="#D6BCA3" points="34.986,49.495 94.397,35.424 97.435,31.019 38.023,45.09 	"/>
	<polyline fill="#DDCAB1" points="38.023,45.09 97.435,31.019 92.388,29.24 32.977,43.312 	"/>
	<polyline fill="#DDCAB1" points="38.873,53.172 98.285,39.101 94.397,35.424 34.986,49.495 	"/>
	<polyline fill="#DDCAB1" points="33.96,38.052 93.372,23.98 88.038,24.41 28.626,38.48 	"/>
	<polyline fill="#D6BCA3" points="22.687,35.836 81.524,20.403 78.848,17.515 19.436,31.586 	"/>
	<path fill="#D6BCA3" d="M38.023,45.09"/>
	<polyline fill="#D6BCA3" points="31.055,61.591 90.467,47.52 90.336,52.869 30.924,66.939 	"/>
	<polyline fill="#DDCAB1" points="36.361,60.9 95.773,46.829 93.717,41.889 34.306,55.96 	"/>
	<polygon fill="#F4DDC3" points="19.436,31.586 22.687,35.836 27.385,33.275 28.626,38.48 33.96,38.052 32.977,43.312 38.023,45.09 
		34.986,49.495 38.873,53.172 34.306,55.96 36.361,60.9 31.055,61.591 30.924,66.939 25.795,65.412 23.5,70.245 19.436,66.764 
		15.373,70.245 13.077,65.412 7.949,66.939 7.818,61.591 2.512,60.9 4.567,55.96 0,53.172 3.887,49.495 0.85,45.09 5.896,43.312 
		4.913,38.052 10.247,38.48 11.487,33.275 16.186,35.836 	"/>
	<circle fill="#EAA7C3" cx="19.718" cy="51.129" r="7.817"/>
	<polyline fill="#DDCAB1" points="28.626,38.48 88.038,24.41 86.797,19.204 27.385,33.275 	"/>
</g>
<g>
	<g>
		<path fill="#F9EAE1" d="M36.912,19.487c7.278-7.411,31.843-13.095,42.706,4.989c5.955,9.914-0.619,12.345-5.373,14.998
			c-5.369,2.995-9.205,4.199-17.607,3.93C41.024,42.903,27.471,29.099,36.912,19.487z"/>
		<path fill="#FFFDF8" d="M39.097,20.298C62.431,9.116,59.318,0.933,69.23,9.461c25.431,21.881-2.653,32.811-16.69,30.073
			C40.33,37.153,35.018,22.254,39.097,20.298z"/>
	</g>
	<g>
		<path fill="#F9EAE1" d="M45.804,17.29c16.906-1.232,23.751-20.484,23.019,2.445C68.329,35.183,26.603,18.688,45.804,17.29z"/>
		<path fill="#FFFDF8" d="M48.809,13.807c13.572-2.815,17.309-26.928,18.57-4.021C68.643,32.691,29.958,17.717,48.809,13.807z"/>
	</g>
</g>
</svg>
