<?xml version="1.0" encoding="utf-8"?>
<!-- Generator: Adobe Illustrator 16.0.4, SVG Export Plug-In . SVG Version: 6.00 Build 0)  -->
<!DOCTYPE svg PUBLIC "-//W3C//DTD SVG 1.1//EN" "http://www.w3.org/Graphics/SVG/1.1/DTD/svg11.dtd">
<svg version="1.1" id="Layer_1" xmlns="http://www.w3.org/2000/svg" xmlns:xlink="http://www.w3.org/1999/xlink" x="0px" y="0px"
	 width="98.392px" height="71.324px" viewBox="0 0 98.392 71.324" enable-background="new 0 0 98.392 71.324" xml:space="preserve">
<g>
	<polyline fill="#3D2309" points="19.329,68.142 78.954,53.983 76.658,58.816 15.374,71.324 	"/>
	<polyline fill="#C4AB97" points="13.075,66.579 72.7,52.421 70.403,57.253 7.95,68.019 	"/>
	<polygon fill="#F4DDC3" points="78.849,18.594 82.1,22.845 86.798,20.283 88.039,25.489 93.372,25.06 92.389,30.319 97.436,32.098 
		94.397,36.503 98.285,40.18 93.718,42.968 95.773,47.908 90.468,48.599 90.337,53.948 85.208,52.421 82.911,57.253 78.849,53.772 
		74.786,57.253 72.489,52.421 67.36,53.948 67.229,48.599 61.925,47.908 63.979,42.968 59.413,40.18 63.3,36.503 60.263,32.098 
		65.31,30.319 64.325,25.06 69.659,25.489 70.899,20.283 75.599,22.845 	"/>
	<polyline fill="#5B3413" points="32.976,44.391 92.389,30.319 93.372,25.06 33.96,39.131 	"/>
	<polyline fill="#5B3413" points="11.088,39.7 70.501,25.629 71.483,20.369 12.071,34.44 	"/>
	<polyline fill="#5B3413" points="34.36,57.039 93.718,42.968 98.392,40.18 38.953,54.251 	"/>
	<polyline fill="#DDCAB1" points="31.056,62.67 95.773,47.908 95.773,47.908 36.362,61.979 	"/>
	<polyline fill="#3D2309" points="25.584,66.579 85.208,52.421 82.911,57.253 23.501,71.324 	"/>
	<polyline fill="#5B3413" points="34.985,50.574 94.397,36.503 97.436,32.098 38.024,46.169 	"/>
	<polyline fill="#513310" points="38.024,46.169 97.436,32.098 92.389,30.319 32.976,44.391 	"/>
	<polyline fill="#513310" points="38.874,54.251 98.285,40.18 94.397,36.503 34.985,50.574 	"/>
	<polyline fill="#513310" points="33.96,39.131 93.372,25.06 88.039,25.489 28.626,39.56 	"/>
	<polyline fill="#5B3413" points="22.688,36.915 81.524,21.482 78.849,18.594 19.437,32.665 	"/>
	<path fill="#D6BCA3" d="M38.024,46.169"/>
	<polyline fill="#5B3413" points="31.056,62.67 90.468,48.599 90.337,53.948 30.925,68.019 	"/>
	<polyline fill="#513310" points="36.362,61.979 95.773,47.908 93.718,42.968 34.306,57.039 	"/>
	<polygon fill="#3D2309" points="19.437,32.665 22.688,36.915 27.386,34.354 28.626,39.56 33.96,39.131 32.976,44.391 
		38.024,46.169 34.985,50.574 38.874,54.251 34.306,57.039 36.362,61.979 31.056,62.67 30.925,68.019 25.796,66.491 23.501,71.324 
		19.437,67.843 15.374,71.324 13.077,66.491 7.95,68.019 7.818,62.67 2.512,61.979 4.567,57.039 0,54.251 3.888,50.574 0.85,46.169 
		5.896,44.391 4.913,39.131 10.247,39.56 11.487,34.354 16.187,36.915 	"/>
	<circle fill="#A07050" cx="19.718" cy="52.208" r="7.817"/>
	<polyline fill="#513310" points="28.626,39.56 88.039,25.489 86.798,20.283 27.386,34.354 	"/>
	<g>
		<g>
			<path fill="#6D4C33" d="M33.565,20.062c7.127-7.559,31.57-13.742,42.799,4.117c6.156,9.79-0.012,13.08-5.066,15.104
				c-5.218,2.089-9.551,2.772-17.523,4.289C38.429,46.49,24.323,29.862,33.565,20.062z"/>
			<path fill="#A07050" d="M35.768,20.827C58.868,9.172,55.589,1.054,65.673,9.378c25.871,21.357-1.984,32.858-16.074,30.407
				C37.343,37.653,31.729,22.865,35.768,20.827z"/>
		</g>
		<g>
			<path fill="#6D4C33" d="M42.411,17.683c16.877-1.576,23.329-20.965,23.064,1.975C65.296,35.112,23.243,19.473,42.411,17.683z"/>
			<path fill="#A07050" d="M45.345,14.139c13.512-3.091,16.756-27.275,18.485-4.399C65.56,32.614,26.577,18.432,45.345,14.139z"/>
		</g>
	</g>
</g>
</svg>
